<mxfile host="app.diagrams.net" agent="Mozilla/5.0 (Macintosh; Intel Mac OS X 10_15_7) AppleWebKit/537.36 (KHTML, like Gecko) Chrome/129.0.0.0 Safari/537.36" version="24.7.17">
  <diagram name="Page-1" id="929967ad-93f9-6ef4-fab6-5d389245f69c">
    <mxGraphModel dx="1434" dy="785" grid="1" gridSize="10" guides="1" tooltips="1" connect="1" arrows="1" fold="1" page="1" pageScale="1.5" pageWidth="1169" pageHeight="826" background="none" math="0" shadow="0">
      <root>
        <mxCell id="0" style=";html=1;" />
        <mxCell id="1" style=";html=1;" parent="0" />
        <mxCell id="1672d66443f91eb5-4" value="&lt;p style=&quot;&quot;&gt;&lt;span style=&quot;font-size: 15px; background-color: initial;&quot;&gt;:GUI&lt;/span&gt;&lt;br&gt;&lt;/p&gt;" style="shape=rect;html=1;overflow=fill;whiteSpace=wrap;align=center;fontStyle=1" parent="1" vertex="1">
          <mxGeometry x="530" y="620" width="163" height="55" as="geometry" />
        </mxCell>
        <mxCell id="1672d66443f91eb5-19" style="rounded=0;html=1;endArrow=none;endFill=0;jettySize=auto;orthogonalLoop=1;dashed=1;" parent="1" edge="1">
          <mxGeometry relative="1" as="geometry">
            <mxPoint x="951.5454545454545" y="825" as="sourcePoint" />
            <mxPoint x="1000.030303030303" y="725" as="targetPoint" />
          </mxGeometry>
        </mxCell>
        <mxCell id="JRu7VuUwxWi-Tp6HADlG-1" value=":Patient" style="shape=umlActor;verticalLabelPosition=bottom;verticalAlign=top;html=1;outlineConnect=0;" vertex="1" parent="1">
          <mxGeometry x="260" y="610" width="30" height="60" as="geometry" />
        </mxCell>
        <mxCell id="JRu7VuUwxWi-Tp6HADlG-4" value="" style="endArrow=classic;html=1;rounded=0;" edge="1" parent="1">
          <mxGeometry width="50" height="50" relative="1" as="geometry">
            <mxPoint x="300" y="645" as="sourcePoint" />
            <mxPoint x="510" y="645" as="targetPoint" />
          </mxGeometry>
        </mxCell>
        <mxCell id="JRu7VuUwxWi-Tp6HADlG-5" value="register()" style="text;html=1;align=center;verticalAlign=middle;whiteSpace=wrap;rounded=0;" vertex="1" parent="1">
          <mxGeometry x="370" y="620" width="60" height="30" as="geometry" />
        </mxCell>
        <mxCell id="JRu7VuUwxWi-Tp6HADlG-6" style="edgeStyle=orthogonalEdgeStyle;rounded=0;orthogonalLoop=1;jettySize=auto;html=1;exitX=0.5;exitY=0;exitDx=0;exitDy=0;entryX=1;entryY=0.25;entryDx=0;entryDy=0;endArrow=none;endFill=0;" edge="1" parent="1" source="1672d66443f91eb5-4" target="1672d66443f91eb5-4">
          <mxGeometry relative="1" as="geometry">
            <Array as="points">
              <mxPoint x="612" y="580" />
              <mxPoint x="670" y="580" />
              <mxPoint x="670" y="620" />
              <mxPoint x="693" y="620" />
            </Array>
          </mxGeometry>
        </mxCell>
        <mxCell id="JRu7VuUwxWi-Tp6HADlG-8" value="displayLogin()" style="text;html=1;align=center;verticalAlign=middle;whiteSpace=wrap;rounded=0;" vertex="1" parent="1">
          <mxGeometry x="610" y="550" width="60" height="30" as="geometry" />
        </mxCell>
      </root>
    </mxGraphModel>
  </diagram>
</mxfile>
